<svg id="visual" viewBox="0 0 960 540" width="960" height="540" xmlns="http://www.w3.org/2000/svg" xmlns:xlink="http://www.w3.org/1999/xlink" version="1.1"><rect width="960" height="540" fill="#007298"></rect><g><g transform="translate(196 192)"><path d="M0 -75.7L65.5 -37.8L65.5 37.8L0 75.7L-65.5 37.8L-65.5 -37.8Z" fill="none" stroke="#ffffff" stroke-width="2"></path></g><g transform="translate(110 2)"><path d="M0 -68L58.9 -34L58.9 34L0 68L-58.9 34L-58.9 -34Z" fill="none" stroke="#ffffff" stroke-width="2"></path></g><g transform="translate(284 348)"><path d="M0 -49L42.4 -24.5L42.4 24.5L0 49L-42.4 24.5L-42.4 -24.5Z" fill="none" stroke="#ffffff" stroke-width="2"></path></g><g transform="translate(734 319)"><path d="M0 -48L41.6 -24L41.6 24L0 48L-41.6 24L-41.6 -24Z" stroke="#ffffff" fill="none" stroke-width="2"></path></g><g transform="translate(533 466)"><path d="M0 -67L58 -33.5L58 33.5L0 67L-58 33.5L-58 -33.5Z" stroke="#ffffff" fill="none" stroke-width="2"></path></g><g transform="translate(499 304)"><path d="M0 -51L44.2 -25.5L44.2 25.5L0 51L-44.2 25.5L-44.2 -25.5Z" stroke="#ffffff" fill="none" stroke-width="2"></path></g><g transform="translate(430 157)"><path d="M0 -67L58 -33.5L58 33.5L0 67L-58 33.5L-58 -33.5Z" stroke="#ffffff" fill="none" stroke-width="2"></path></g><g transform="translate(138 524)"><path d="M0 -69L59.8 -34.5L59.8 34.5L0 69L-59.8 34.5L-59.8 -34.5Z" stroke="#ffffff" fill="none" stroke-width="2"></path></g><g transform="translate(666 54)"><path d="M0 -56L48.5 -28L48.5 28L0 56L-48.5 28L-48.5 -28Z" stroke="#ffffff" fill="none" stroke-width="2"></path></g><g transform="translate(884 525)"><path d="M0 -48L41.6 -24L41.6 24L0 48L-41.6 24L-41.6 -24Z" stroke="#ffffff" fill="none" stroke-width="2"></path></g></g></svg>